# xmcd
#
# Track frame offsets:
#	150
#	1687
#	8271
#	9888
#	11230
#	12558
#	13959
#	15419
#	16677
#	23268
#	35999
#	48866
#	50427
#	52758
#	54131
#	55316
#	56651
#	57805
#	59185
#	61025
#	63562
#	65834
#	68364
#	70479
#	72643
#	76332
#	84044
#	94929
#	98514
#	103503
#	107461
#	120105
#	132829
#	139799
#	142391
#	153632
#	164765
#	167925
#	170960
#	174573
#	180335
#	181464
#	185401
#	192030
#	195556
#	205274
#	215045
#	217863
#	222451
#	245192
#	251358
#	260815
#	263138
#	275618
#	288081
#	298851
#	309235
#	315773
#
# Disc length: 4335 seconds
# Revision: 0
# Processed by: cddbd v1.5.2PL0 Copyright (c) Steve Scherf et al.
# Submitted via: dBpowerAMP V12.0
#
DISCID=3810ed3a
DTITLE=House of Blues - Blues Guitar Course Disc 2
DYEAR=1900
DGENRE=Blues
TTITLE0=Introduction
TTITLE1=Tuning
TTITLE2=A9 Chord
TTITLE3=D9 Chord
TTITLE4=Am7 Chord
TTITLE5=Dm7 Chord
TTITLE6=Amaj7 Chord
TTITLE7=Dmaj7 Chord
TTITLE8=The Jazz Blues Fuze
TTITLE9=The Jazz Blues Fuze BDR
TTITLE10=The Jazz Blues Fuze BD
TTITLE11=Lead Techniques - Rakes
TTITLE12=Lead Techniques - Pick and Finger
TTITLE13=Advanced Blues Riffs - Riff #1
TTITLE14=Advanced Blues Riffs - Riff #2
TTITLE15=Advanced Blues Riffs - Riff #3
TTITLE16=Advanced Blues Riffs - Riff #4
TTITLE17=Advanced Blues Riffs - Riff #5
TTITLE18=Skipping Strings
TTITLE19=1st Position C Major Pentatonic Scale
TTITLE20=2nd Position C Major Pentatonic Scale
TTITLE21=3rd Position C Major Pentatonic Scale
TTITLE22=4th Position C Major Pentatonic Scale
TTITLE23=5th Position C Major Pentatonic Scale
TTITLE24=Fast Blues in C (Sliding Rhythm)
TTITLE25=Fast Blues in C (Sliding Rhythm) BDR
TTITLE26=Fast Blues in C (Sliding Rhythm) BD
TTITLE27=Improvisation Exercise
TTITLE28=Sixteenth Note Lead Pattern
TTITLE29=Blues Rock Progression
TTITLE30=Blues Rock Progression BDR
TTITLE31=Blues Rock Progression BD
TTITLE32=Classic Old School Blues Turnarounds
TTITLE33=Modern Blues Progression
TTITLE34=Modern Blues Progression BDR
TTITLE35=Modern Blues Progression BD
TTITLE36=1st Position A Minor Scale
TTITLE37=2nd Position A Minor Scale
TTITLE38=Melodic Lead BDRL
TTITLE39=Melodic Lead BDRL slow
TTITLE40=Slide Technique Rhythm
TTITLE41=Slide Technique Rhythm BDR
TTITLE42=Slide Technique Rhythm BD
TTITLE43=E Blues Riff Rhythm
TTITLE44=E Blues Riff Rhythm BDR
TTITLE45=E Blues Riff Rhythm BD
TTITLE46=E Blues Solo BDRL
TTITLE47=E Blues Solo BDRL slow
TTITLE48=Never Coming Back
TTITLE49=Never Coming Back (excerpt)
TTITLE50=Never Coming Back (excerpt) slow
TTITLE51=Conclusion
TTITLE52=Blues Rock Progression (Key of D) BD
TTITLE53=The Jazz Blues Fuze BD
TTITLE54=Modern Blues Progression BD
TTITLE55=Fast Blues in C (Sliding Rhythm) BD
TTITLE56=Slide Technique Rhythm BD
TTITLE57=E Blues Riff Rhythm BD
EXTD=
EXTT0=
EXTT1=
EXTT2=
EXTT3=
EXTT4=
EXTT5=
EXTT6=
EXTT7=
EXTT8=
EXTT9=
EXTT10=
EXTT11=
EXTT12=
EXTT13=
EXTT14=
EXTT15=
EXTT16=
EXTT17=
EXTT18=
EXTT19=
EXTT20=
EXTT21=
EXTT22=
EXTT23=
EXTT24=
EXTT25=
EXTT26=
EXTT27=
EXTT28=
EXTT29=
EXTT30=
EXTT31=
EXTT32=
EXTT33=
EXTT34=
EXTT35=
EXTT36=
EXTT37=
EXTT38=
EXTT39=
EXTT40=
EXTT41=
EXTT42=
EXTT43=
EXTT44=
EXTT45=
EXTT46=
EXTT47=
EXTT48=
EXTT49=
EXTT50=
EXTT51=
EXTT52=
EXTT53=
EXTT54=
EXTT55=
EXTT56=
EXTT57=
PLAYORDER=
